<svg
   width="3.2398169in"
   height="2.3369477in"
   viewBox="0 0 82.291348 59.35847"
   version="1.1"
   id="svg8"
   inkscape:version="1.0.1 (c497b03c, 2020-09-10)"
   sodipodi:docname="butterfly.svg"
   inkscape:export-filename="butterfly.svg"
   inkscape:export-xdpi="96"
   inkscape:export-ydpi="96"
   xmlns:inkscape="http://www.inkscape.org/namespaces/inkscape"
   xmlns:sodipodi="http://sodipodi.sourceforge.net/DTD/sodipodi-0.dtd"
   xmlns="http://www.w3.org/2000/svg"
   xmlns:svg="http://www.w3.org/2000/svg"
   xmlns:rdf="http://www.w3.org/1999/02/22-rdf-syntax-ns#"
   xmlns:cc="http://creativecommons.org/ns#"
   xmlns:dc="http://purl.org/dc/elements/1.1/">
  <defs
     id="defs2">
    <linearGradient
       id="linearGradient3110"
       inkscape:swatch="solid">
      <stop
         style="stop-color:#000000;stop-opacity:1;"
         offset="0"
         id="stop3108" />
    </linearGradient>
  </defs>
  <sodipodi:namedview
     id="base"
     pagecolor="#ffffff"
     bordercolor="#666666"
     borderopacity="1.0"
     inkscape:pageopacity="0.0"
     inkscape:pageshadow="2"
     inkscape:zoom="1.4928619"
     inkscape:cx="355.90718"
     inkscape:cy="531.94241"
     inkscape:document-units="in"
     inkscape:current-layer="layer2"
     inkscape:document-rotation="0"
     showgrid="false"
     inkscape:snap-global="true"
     inkscape:window-width="1920"
     inkscape:window-height="1035"
     inkscape:window-x="0"
     inkscape:window-y="23"
     inkscape:window-maximized="1"
     showguides="true"
     units="in"
     inkscape:lockguides="true"
     fit-margin-top="0"
     fit-margin-left="0"
     fit-margin-right="0"
     fit-margin-bottom="0"
     width="8.5in"
     inkscape:guide-bbox="true"
     inkscape:showpageshadow="2"
     inkscape:pagecheckerboard="0"
     inkscape:deskcolor="#d1d1d1">
    <sodipodi:guide
       position="152.67341,258.59778"
       orientation="-1,0"
       id="guide884"
       inkscape:label=""
       inkscape:locked="true"
       inkscape:color="rgb(0,0,255)" />
    <sodipodi:guide
       position="50.519667,250.79695"
       orientation="1,0"
       id="guide886"
       inkscape:locked="true" />
    <sodipodi:guide
       position="68.350138,267.14155"
       orientation="0,-1"
       id="guide888"
       inkscape:locked="true" />
    <sodipodi:guide
       position="74.628768,75.987427"
       orientation="0,-1"
       id="guide890"
       inkscape:locked="true" />
    <sodipodi:guide
       position="91.381163,202.87756"
       orientation="0,-1"
       id="guide892"
       inkscape:locked="true" />
  </sodipodi:namedview>
  <metadata
     id="metadata5">
    <rdf:RDF>
      <cc:Work
         rdf:about="">
        <dc:format>image/svg+xml</dc:format>
        <dc:type
           rdf:resource="http://purl.org/dc/dcmitype/StillImage" />
        <dc:title />
      </cc:Work>
    </rdf:RDF>
  </metadata>
  <g
     inkscape:groupmode="layer"
     id="layer2"
     inkscape:label="Layer 5"
     style="display:inline"
     transform="translate(-57.409464,-110.99621)">
    <g
       id="g379"
       transform="rotate(-90,96.174119,154.09581)"
       inkscape:export-filename="butterfly.svg"
       inkscape:export-xdpi="96"
       inkscape:export-ydpi="96">
      <g
         id="g244"
         transform="matrix(0,0.6463887,-0.6463887,0,181.1181,67.241494)"
         style="display:inline;opacity:1">
        <path
           id="path220"
           style="fill:#000000;stroke-width:0.264583"
           d="m 155.53111,156.2964 c -6.63937,-3.16321 -8.578,-10.86987 -11.97077,-16.76718 -2.24072,-3.68496 -5.979,-7.22441 -5.13267,-11.94987 0.0706,-6.14784 -0.27819,-12.31015 0.26575,-18.44517 5.08886,-2.14302 4.63201,-9.134357 9.10311,-12.123743 10.97892,-14.19263 25.39119,-26.75451 43.11165,-31.32732 3.34794,-1.06634 8.48856,-2.04758 10.31368,1.88956 1.90993,5.73299 -2.35446,10.89377 -3.57961,16.27676 -2.56856,7.52209 -4.09298,15.37663 -6.3174,22.971713 -3.03851,5.07608 -9.60615,5.68146 -14.93819,6.00449 -3.78591,0.50699 -1.43454,3.05699 0.90242,3.39718 6.31811,3.52737 11.42716,10.718 9.74632,18.22024 -0.91019,6.23755 -4.92773,11.71754 -10.21629,15.01039 -5.70774,5.06836 -13.64893,8.05804 -21.288,6.84295 z m 3.4483,-1.91754 c -2.18754,-3.29715 -3.38794,1.83247 0,0 z m -3.69779,-0.4124 c -1.13479,-1.84321 -1.50373,1.34411 0,0 z m 6.9071,-0.0217 c 0.12496,-3.33171 -2.13796,2.11047 0,0 z m 2.41813,-1.36736 c 0.73473,-4.14284 -2.50492,1.92987 0,0 z m 3.66948,-0.48737 c -0.40275,-2.02199 -1.2265,1.64326 0,0 z m -14.10494,-0.5512 c -0.9107,-3.151 -4.23675,1.84448 0,0 z m 3.62244,-0.0659 c -0.60997,-3.01037 -3.40302,2.38503 -0.11935,0.038 l 3e-4,-1e-4 z m 3.10606,-0.21508 c 0.15989,-2.86554 -2.51902,1.80434 0,0 z m 11.31381,-0.59854 c -1.06084,-2.01966 -1.23069,1.85173 0,0 z m -16.9281,-1.73304 c 1.62547,-5.21907 -3.57706,-8.94427 -4.67662,-13.64155 -2.15131,-4.25585 -4.45652,-8.4423 -7.09963,-12.41502 -0.80869,6.85841 3.46566,12.8683 4.76554,19.38914 0.52088,2.74517 3.5267,9.76083 7.01071,6.66743 z m 11.85308,0.57884 c -0.43559,-2.26422 -1.61514,1.51742 0,0 z m -3.90766,-0.28792 c 0.96855,-2.28772 -1.87068,0.84505 0,0 z m -1.79917,-1.45992 c 2.71475,-3.75918 -0.60292,-7.88476 -2.68577,-11.05327 -1.78158,-2.63283 -1.21733,-5.45136 -3.7506,-8.15446 -2.7155,-2.84474 -5.92109,-5.23646 -8.84048,-7.89319 -4.06753,-2.82773 -2.32242,4.84679 0.0139,5.99879 3.56446,2.46453 5.08139,6.80331 7.10559,10.51111 2.12061,3.51832 2.86507,8.24443 5.63083,11.10362 0.82722,0.35049 2.0456,0.42766 2.52656,-0.5126 z m 9.65729,0.18992 c -0.0902,-1.05223 -0.6984,1.22651 0,0 z m 4.0533,-0.48375 c -1.28438,-1.73575 -0.33671,2.10042 0,0 z m -5.25941,-1.57128 c 1.87893,-4.62734 -2.42925,-8.34021 -4.6475,-11.89959 -0.73126,-3.02803 -9.32535,-4.88768 -5.55523,-0.22296 2.59448,3.71833 3.13904,8.44784 5.02294,12.33548 1.38095,1.39801 4.01021,1.52115 5.17979,-0.21293 z m 8.74674,-0.19393 c -0.47734,-1.7898 -0.71383,1.6488 0,0 z m -31.12115,-3.59913 c -1.84639,-5.94377 -3.68613,-11.89638 -5.92447,-17.70721 -3.76039,4.20754 0.72205,9.28556 2.56834,13.2643 0.58418,0.65943 2.73484,6.54347 3.35613,4.44291 z m 26.75552,0.69166 c 4.26791,-1.61377 1.71908,-6.85129 -1.15332,-8.54344 -2.74465,-3.45935 -8.47088,-0.8371 -5.0405,3.18452 2.28589,1.51298 2.16601,7.30617 6.19382,5.35892 z m 3.83647,0.26164 c 0.22499,-1.87604 -0.81332,1.44968 0,0 z m 3.43958,-1.60312 c -1.14539,-1.15581 0.0252,1.56459 0,0 z m 2.58443,-3.02709 c -0.49409,-1.77098 -0.77115,1.8967 0,0 z m -4.50412,-1.38906 c 3.5255,-3.36885 -1.31836,-6.95298 -4.43759,-8.05181 -6.41238,-1.99534 7.49489,3.42787 4.1164,-2.60164 -2.31258,-4.05387 -7.56495,-3.60152 -11.48194,-4.75438 -5.93853,-1.08882 -11.60738,-3.31213 -17.37931,-4.9395 -3.27569,-1.11517 -7.26787,2.58983 -2.73125,4.29692 5.66,4.05458 10.66909,9.75601 17.87685,10.93441 2.45836,-0.0717 3.7182,-2.34265 5.61928,0.56029 2.28427,1.71676 5.46732,5.43385 8.41756,4.55571 z m -10.51573,-9.98803 c 0.7332,-0.87528 1.03546,1.42544 0,0 z m 13.75834,9.12813 c -0.62512,-1.33515 -0.28165,1.13482 0,0 z m 1.5875,-2.8948 c -0.57526,-2.77581 -1.29376,1.13375 0,0 z m 0.79375,-3.19062 c -1.06065,-2.83678 -0.91603,2.21621 0,0 z m -36.6448,-0.39687 c -0.83622,-1.52885 -0.43319,1.01294 0,0 z m 35.32188,-3.88177 c 0.0608,-2.8893 -2.50211,0.2339 0,0 z m -42.17766,-3.72366 c -1.39369,0.5442 1.14078,0.92873 0,0 z m 34.18328,-0.37029 c -0.35747,-4.85677 -6.267,-5.75746 -10.15427,-5.26028 -2.29966,-1.0168 -9.3496,1.17549 -4.51687,3.03568 4.54063,1.59969 9.45278,1.8729 14.06778,3.06204 0.35673,-0.0783 0.74463,-0.42726 0.60336,-0.83744 z m -32.75146,-0.10969 c -0.88857,-1.07999 0.18508,1.11485 0,0 z m 38.36054,-0.0505 c 0.0676,-2.06901 -1.54341,0.29586 0,0 z m -3.17095,-1.93562 c 0.12402,-2.88963 -2.64459,0.0705 0,0 z m -19.35281,-2.85343 c 2.98196,1.03532 3.80559,-5.09698 0.3662,-2.54993 -3.25332,0.86085 -10.82012,-2.42632 -11.03258,1.74036 3.21444,1.41375 7.01449,1.39863 10.40215,0.93229 l 0.20247,-0.094 z m -12.39719,-2.02397 c -0.8032,-1.59342 -0.59314,1.40617 0,0 z m 1.5875,-3.30729 c -1.424,-1.19547 -2.01235,1.31287 0,0 z m 1.25126,-0.15985 c -0.66615,-0.67888 -0.47531,0.80923 0,0 z m 2.32061,-0.10473 c -0.84991,-1.26613 -1.07203,1.33237 0,0 z m 2.38125,-1.06659 c 9.79602,-0.28536 19.37364,-2.97403 29.18098,-3.02388 5.34581,-1.34432 2.04303,-8.883403 -2.70405,-6.72896 -5.57352,0.13892 -11.15276,0.82982 -16.71745,0.21093 -7.02359,0.29773 -11.99143,6.60944 -18.20145,8.52823 8.10355,-6.1764 18.1801,-10.356783 23.91625,-19.175443 1.71526,-4.69131 -6.27791,-2.33853 -8.53569,-1.27711 -4.83423,3.47002 -8.68039,8.13887 -12.5977,12.574263 -2.12752,2.43941 -7.74943,9.59778 -1.07169,9.42555 2.24928,-0.0345 4.48149,-0.90238 6.7308,-0.53358 z m -11.90625,-2.10841 c -0.30531,-0.96757 -0.54845,0.89232 0,0 z m 46.63294,-1.52135 c -1.20194,-1.49788 -0.80613,1.6737 0,0 z m 1.52123,-4.82865 c -1.18479,-2.778203 -0.90961,2.25268 0,0 z m -2.06822,-0.3142 c -0.77688,0.13312 0.97943,0.98429 0,0 z m -7.24358,-2.020373 c 4.9301,1.616963 8.01372,-7.96288 1.9079,-7.42042 -5.48474,0.52487 -11.10225,0.98109 -16.30896,2.84071 -2.94126,0.7693 -5.11266,6.059183 -0.38585,5.062276 4.92603,-0.25167 9.86758,-0.0803 14.78691,-0.482566 z m 8.07261,-1.7026 c -1.15105,-2.38504 -0.89246,2.506893 0,0 z m 2.26922,0.44364 c 1.21647,-2.79705 -1.8363,0.29929 -0.13751,0.0739 z m 1.05833,-3.96875 c 1.19428,-2.70545 -2.26406,1.14583 0,0 z m -2.27357,-0.42815 c 1.16941,-5.00334 -4.64797,1.15458 0,0 z m -15.92987,-1.41733 c 3.87698,-0.86446 11.66877,-0.91392 11.54425,-5.97075 -3.33081,-3.55582 -8.94999,-1.06913 -12.56075,0.84863 -3.08271,0.53755 -5.37482,7.06675 -0.61468,5.6297 l 0.80131,-0.31838 z m 14.17602,-2.6718 c 0.16023,-2.5214 -2.69864,1.63969 0,0 z m 3.87569,-0.15743 c -1.12961,-2.59317 -1.59104,1.90505 0,0 z m 2.20973,-3.01757 c 2.51371,-3.82973 -3.01107,1.01942 0,0 z m -3.07372,-0.73745 c 1.26401,-5.14592 -5.27777,2.465 0,0 z m -17.11503,-0.56772 c 4.61842,-1.00595 -2.53285,-4.12716 -2.18133,0.0538 0.39625,0.92439 1.70013,0.61412 2.18133,-0.0538 z m -3.19716,-1.16987 c 3.70998,-3.52612 -6.23293,-3.83396 -2.97094,0.006 0.85304,0.60592 2.14636,0.72896 2.97094,-0.006 z m 17.91664,-1.92037 c 4.05284,0.26746 2.15649,-5.51549 -1.22579,-3.90634 -4.15933,-0.0451 -3.76029,7.07048 0.51653,4.20137 0.23662,-0.0978 0.47282,-0.19672 0.70926,-0.29503 z m 6.95854,0.28246 c 0.42962,-2.75054 -2.27337,1.32163 0,0 z m -3.61442,-0.46745 c 0.0317,-1.98927 -1.62586,1.96374 0,0 z m -11.43262,-2.1586 c 3.33764,-2.44157 -2.9285,-8.508 -3.25512,-2.52968 -0.26921,1.8197 1.46983,3.52842 3.25512,2.52968 z m 14.54296,-0.59479 c 0.61588,-4.79509 -2.85861,1.82399 0,0 z m -8.04196,-1.3908 c 2.40352,0.94415 8.23668,-3.20031 2.81704,-3.15106 -2.58151,-1.59126 -9.82706,3.60888 -4.59122,3.44819 0.59055,-0.10375 1.17886,-0.22269 1.77418,-0.29713 z m -3.83646,-1.00837 c -0.40435,-1.29563 -0.85275,0.73416 0,0 z m 1.98437,-2.59427 c 1.76896,-1.31067 7.80319,-0.0717 6.35995,-3.45059 -3.65131,-0.43382 -7.80239,1.02406 -9.66543,4.3517 1.16271,-0.07 2.15563,-0.77192 3.30548,-0.90111 z m 11.90625,0.32969 c -2.36472,-4.12689 -1.72413,3.14204 0,0 z m 0.53633,-3.71575 c -1.30263,-3.21216 -3.19165,2.00946 0,0 z m -3.18363,-2.1027 c -0.34207,-3.7279 -4.58885,1.85642 0,0 z m -4.4218,-0.70367 c 0.44842,-1.46976 -2.87379,1.26068 -0.1065,0.0268 z m 7.0691,-0.0484 c -0.80943,-0.96014 -0.17938,1.26239 0,0 z M 138.4317,107.53212 c 0.78031,-2.04786 -0.073,2.038 0,0 z" />
        <path
           id="path211"
           style="fill:#000000;stroke-width:0.264583"
           d="m 155.53111,156.2964 c -6.63937,-3.16321 -8.578,-10.86987 -11.97077,-16.76718 -2.24072,-3.68496 -5.979,-7.22441 -5.13267,-11.94987 0.0706,-6.14784 -0.27819,-12.31015 0.26575,-18.44517 5.08886,-2.14302 4.63201,-9.134357 9.10311,-12.123743 10.97892,-14.19263 25.39119,-26.75451 43.11165,-31.32732 3.34794,-1.06634 8.48856,-2.04758 10.31368,1.88956 1.90993,5.73299 -2.35446,10.89377 -3.57961,16.27676 -2.56856,7.52209 -4.09298,15.37663 -6.3174,22.971713 -3.03851,5.07608 -9.60615,5.68146 -14.93819,6.00449 -3.78591,0.50699 -1.43454,3.05699 0.90242,3.39718 6.31811,3.52737 11.42716,10.718 9.74632,18.22024 -0.91019,6.23755 -4.92773,11.71754 -10.21629,15.01039 -5.70774,5.06836 -13.64893,8.05804 -21.288,6.84295 z m 3.4483,-1.91754 c -2.18754,-3.29715 -3.38794,1.83247 0,0 z m -3.69779,-0.4124 c -1.13479,-1.84321 -1.50373,1.34411 0,0 z m 6.9071,-0.0217 c 0.12496,-3.33171 -2.13796,2.11047 0,0 z m 2.41813,-1.36736 c 0.73473,-4.14284 -2.50492,1.92987 0,0 z m 3.66948,-0.48737 c -0.40275,-2.02199 -1.2265,1.64326 0,0 z m -14.10494,-0.5512 c -0.9107,-3.151 -4.23675,1.84448 0,0 z m 3.62244,-0.0659 c -0.60997,-3.01037 -3.40302,2.38503 -0.11935,0.038 l 3e-4,-1e-4 z m 3.10606,-0.21508 c 0.15989,-2.86554 -2.51902,1.80434 0,0 z m 11.31381,-0.59854 c -1.06084,-2.01966 -1.23069,1.85173 0,0 z m -16.9281,-1.73304 c 1.62547,-5.21907 -3.57706,-8.94427 -4.67662,-13.64155 -2.15131,-4.25585 -4.45652,-8.4423 -7.09963,-12.41502 -0.80869,6.85841 3.46566,12.8683 4.76554,19.38914 0.52088,2.74517 3.5267,9.76083 7.01071,6.66743 z m 11.85308,0.57884 c -0.43559,-2.26422 -1.61514,1.51742 0,0 z m -3.90766,-0.28792 c 0.96855,-2.28772 -1.87068,0.84505 0,0 z m -1.79917,-1.45992 c 2.71475,-3.75918 -0.60292,-7.88476 -2.68577,-11.05327 -1.78158,-2.63283 -1.21733,-5.45136 -3.7506,-8.15446 -2.7155,-2.84474 -5.92109,-5.23646 -8.84048,-7.89319 -4.06753,-2.82773 -2.32242,4.84679 0.0139,5.99879 3.56446,2.46453 5.08139,6.80331 7.10559,10.51111 2.12061,3.51832 2.86507,8.24443 5.63083,11.10362 0.82722,0.35049 2.0456,0.42766 2.52656,-0.5126 z m 9.65729,0.18992 c -0.0902,-1.05223 -0.6984,1.22651 0,0 z m 4.0533,-0.48375 c -1.28438,-1.73575 -0.33671,2.10042 0,0 z m -5.25941,-1.57128 c 1.87893,-4.62734 -2.42925,-8.34021 -4.6475,-11.89959 -0.73126,-3.02803 -9.32535,-4.88768 -5.55523,-0.22296 2.59448,3.71833 3.13904,8.44784 5.02294,12.33548 1.38095,1.39801 4.01021,1.52115 5.17979,-0.21293 z m 8.74674,-0.19393 c -0.47734,-1.7898 -0.71383,1.6488 0,0 z m -31.12115,-3.59913 c -1.84639,-5.94377 -3.68613,-11.89638 -5.92447,-17.70721 -3.76039,4.20754 0.72205,9.28556 2.56834,13.2643 0.58418,0.65943 2.73484,6.54347 3.35613,4.44291 z m 26.75552,0.69166 c 4.26791,-1.61377 1.71908,-6.85129 -1.15332,-8.54344 -2.74465,-3.45935 -8.47088,-0.8371 -5.0405,3.18452 2.28589,1.51298 2.16601,7.30617 6.19382,5.35892 z m 3.83647,0.26164 c 0.22499,-1.87604 -0.81332,1.44968 0,0 z m 3.43958,-1.60312 c -1.14539,-1.15581 0.0252,1.56459 0,0 z m 2.58443,-3.02709 c -0.49409,-1.77098 -0.77115,1.8967 0,0 z m -4.50412,-1.38906 c 3.5255,-3.36885 -1.31836,-6.95298 -4.43759,-8.05181 -6.41238,-1.99534 7.49489,3.42787 4.1164,-2.60164 -2.31258,-4.05387 -7.56495,-3.60152 -11.48194,-4.75438 -5.93853,-1.08882 -11.60738,-3.31213 -17.37931,-4.9395 -3.27569,-1.11517 -7.26787,2.58983 -2.73125,4.29692 5.66,4.05458 10.66909,9.75601 17.87685,10.93441 2.45836,-0.0717 3.7182,-2.34265 5.61928,0.56029 2.28427,1.71676 5.46732,5.43385 8.41756,4.55571 z m -10.51573,-9.98803 c 0.7332,-0.87528 1.03546,1.42544 0,0 z m 13.75834,9.12813 c -0.62512,-1.33515 -0.28165,1.13482 0,0 z m 1.5875,-2.8948 c -0.57526,-2.77581 -1.29376,1.13375 0,0 z m 0.79375,-3.19062 c -1.06065,-2.83678 -0.91603,2.21621 0,0 z m -36.6448,-0.39687 c -0.83622,-1.52885 -0.43319,1.01294 0,0 z m 35.32188,-3.88177 c 0.0608,-2.8893 -2.50211,0.2339 0,0 z m -42.17766,-3.72366 c -1.39369,0.5442 1.14078,0.92873 0,0 z m 34.18328,-0.37029 c -0.35747,-4.85677 -6.267,-5.75746 -10.15427,-5.26028 -2.29966,-1.0168 -9.3496,1.17549 -4.51687,3.03568 4.54063,1.59969 9.45278,1.8729 14.06778,3.06204 0.35673,-0.0783 0.74463,-0.42726 0.60336,-0.83744 z m -32.75146,-0.10969 c -0.88857,-1.07999 0.18508,1.11485 0,0 z m 38.36054,-0.0505 c 0.0676,-2.06901 -1.54341,0.29586 0,0 z m -3.17095,-1.93562 c 0.12402,-2.88963 -2.64459,0.0705 0,0 z m -19.35281,-2.85343 c 2.98196,1.03532 3.80559,-5.09698 0.3662,-2.54993 -3.25332,0.86085 -10.82012,-2.42632 -11.03258,1.74036 3.21444,1.41375 7.01449,1.39863 10.40215,0.93229 l 0.20247,-0.094 z m -12.39719,-2.02397 c -0.8032,-1.59342 -0.59314,1.40617 0,0 z m 1.5875,-3.30729 c -1.424,-1.19547 -2.01235,1.31287 0,0 z m 1.25126,-0.15985 c -0.66615,-0.67888 -0.47531,0.80923 0,0 z m 2.32061,-0.10473 c -0.84991,-1.26613 -1.07203,1.33237 0,0 z m 2.38125,-1.06659 c 9.79602,-0.28536 19.37364,-2.97403 29.18098,-3.02388 5.34581,-1.34432 2.04303,-8.883403 -2.70405,-6.72896 -5.57352,0.13892 -11.15276,0.82982 -16.71745,0.21093 -7.02359,0.29773 -11.99143,6.60944 -18.20145,8.52823 8.10355,-6.1764 18.1801,-10.356783 23.91625,-19.175443 1.71526,-4.69131 -6.27791,-2.33853 -8.53569,-1.27711 -4.83423,3.47002 -8.68039,8.13887 -12.5977,12.574263 -2.12752,2.43941 -7.74943,9.59778 -1.07169,9.42555 2.24928,-0.0345 4.48149,-0.90238 6.7308,-0.53358 z m -11.90625,-2.10841 c -0.30531,-0.96757 -0.54845,0.89232 0,0 z m 46.63294,-1.52135 c -1.20194,-1.49788 -0.80613,1.6737 0,0 z m 1.52123,-4.82865 c -1.18479,-2.778203 -0.90961,2.25268 0,0 z m -2.06822,-0.3142 c -0.77688,0.13312 0.97943,0.98429 0,0 z m -7.24358,-2.020373 c 4.9301,1.616963 8.01372,-7.96288 1.9079,-7.42042 -5.48474,0.52487 -11.10225,0.98109 -16.30896,2.84071 -2.94126,0.7693 -5.11266,6.059183 -0.38585,5.062276 4.92603,-0.25167 9.86758,-0.0803 14.78691,-0.482566 z m 8.07261,-1.7026 c -1.15105,-2.38504 -0.89246,2.506893 0,0 z m 2.26922,0.44364 c 1.21647,-2.79705 -1.8363,0.29929 -0.13751,0.0739 z m 1.05833,-3.96875 c 1.19428,-2.70545 -2.26406,1.14583 0,0 z m -2.27357,-0.42815 c 1.16941,-5.00334 -4.64797,1.15458 0,0 z m -15.92987,-1.41733 c 3.87698,-0.86446 11.66877,-0.91392 11.54425,-5.97075 -3.33081,-3.55582 -8.94999,-1.06913 -12.56075,0.84863 -3.08271,0.53755 -5.37482,7.06675 -0.61468,5.6297 l 0.80131,-0.31838 z m 14.17602,-2.6718 c 0.16023,-2.5214 -2.69864,1.63969 0,0 z m 3.87569,-0.15743 c -1.12961,-2.59317 -1.59104,1.90505 0,0 z m 2.20973,-3.01757 c 2.51371,-3.82973 -3.01107,1.01942 0,0 z m -3.07372,-0.73745 c 1.26401,-5.14592 -5.27777,2.465 0,0 z m -17.11503,-0.56772 c 4.61842,-1.00595 -2.53285,-4.12716 -2.18133,0.0538 0.39625,0.92439 1.70013,0.61412 2.18133,-0.0538 z m -3.19716,-1.16987 c 3.70998,-3.52612 -6.23293,-3.83396 -2.97094,0.006 0.85304,0.60592 2.14636,0.72896 2.97094,-0.006 z m 17.91664,-1.92037 c 4.05284,0.26746 2.15649,-5.51549 -1.22579,-3.90634 -4.15933,-0.0451 -3.76029,7.07048 0.51653,4.20137 0.23662,-0.0978 0.47282,-0.19672 0.70926,-0.29503 z m 6.95854,0.28246 c 0.42962,-2.75054 -2.27337,1.32163 0,0 z m -3.61442,-0.46745 c 0.0317,-1.98927 -1.62586,1.96374 0,0 z m -11.43262,-2.1586 c 3.33764,-2.44157 -2.9285,-8.508 -3.25512,-2.52968 -0.26921,1.8197 1.46983,3.52842 3.25512,2.52968 z m 14.54296,-0.59479 c 0.61588,-4.79509 -2.85861,1.82399 0,0 z m -8.04196,-1.3908 c 2.40352,0.94415 8.23668,-3.20031 2.81704,-3.15106 -2.58151,-1.59126 -9.82706,3.60888 -4.59122,3.44819 0.59055,-0.10375 1.17886,-0.22269 1.77418,-0.29713 z m -3.83646,-1.00837 c -0.40435,-1.29563 -0.85275,0.73416 0,0 z m 1.98437,-2.59427 c 1.76896,-1.31067 7.80319,-0.0717 6.35995,-3.45059 -3.65131,-0.43382 -7.80239,1.02406 -9.66543,4.3517 1.16271,-0.07 2.15563,-0.77192 3.30548,-0.90111 z m 11.90625,0.32969 c -2.36472,-4.12689 -1.72413,3.14204 0,0 z m 0.53633,-3.71575 c -1.30263,-3.21216 -3.19165,2.00946 0,0 z m -3.18363,-2.1027 c -0.34207,-3.7279 -4.58885,1.85642 0,0 z m -4.4218,-0.70367 c 0.44842,-1.46976 -2.87379,1.26068 -0.1065,0.0268 z m 7.0691,-0.0484 c -0.80943,-0.96014 -0.17938,1.26239 0,0 z M 138.4317,107.53212 c 0.78031,-2.04786 -0.073,2.038 0,0 z" />
        <path
           id="path220-1"
           style="opacity:1;fill:#000000;stroke-width:0.264583"
           d="m 120.57317,156.29641 c 6.63937,-3.16321 8.578,-10.86987 11.97077,-16.76718 2.24072,-3.68496 5.979,-7.22441 5.13267,-11.94987 -0.0706,-6.14784 0.27819,-12.31015 -0.26575,-18.44517 -5.08886,-2.14302 -4.63201,-9.134357 -9.10311,-12.123756 -10.97892,-14.19263 -25.39119,-26.754507 -43.111651,-31.327317 -3.34794,-1.06634 -8.48856,-2.04758 -10.31368,1.88956 -1.90993,5.73299 2.35446,10.893767 3.57961,16.276757 2.56856,7.52209 4.09298,15.376629 6.3174,22.971726 3.03851,5.07608 9.60615,5.68146 14.93819,6.00449 3.785911,0.50699 1.434541,3.05699 -0.90242,3.39718 -6.31811,3.52737 -11.42716,10.718 -9.74632,18.22024 0.91019,6.23755 4.92773,11.71754 10.21629,15.01039 5.707741,5.06836 13.648931,8.05804 21.288001,6.84295 z m -3.4483,-1.91754 c 2.18754,-3.29715 3.38794,1.83247 0,0 z m 3.69779,-0.4124 c 1.13479,-1.84321 1.50373,1.34411 0,0 z m -6.9071,-0.0217 c -0.12496,-3.33171 2.13796,2.11047 0,0 z m -2.41813,-1.36737 c -0.73473,-4.14283 2.50492,1.92988 0,0 z m -3.66948,-0.48736 c 0.40275,-2.02199 1.2265,1.64325 0,0 z m 14.10494,-0.5512 c 0.9107,-3.151 4.23675,1.84448 0,0 z m -3.62244,-0.0659 c 0.60997,-3.01037 3.40302,2.38503 0.11935,0.038 l -2.9e-4,-1e-4 z m -3.10606,-0.21508 c -0.15989,-2.86554 2.51902,1.80434 0,0 z m -11.31381,-0.59854 c 1.06084,-2.01966 1.23069,1.85173 0,0 z m 16.9281,-1.73304 c -1.62547,-5.21907 3.57706,-8.94427 4.67662,-13.64155 2.15131,-4.25585 4.45652,-8.4423 7.09963,-12.41502 0.80869,6.85841 -3.46566,12.8683 -4.76554,19.38914 -0.52088,2.74517 -3.5267,9.76083 -7.01071,6.66743 z m -11.85308,0.57884 c 0.43559,-2.26422 1.61514,1.51742 0,0 z m 3.90766,-0.28792 c -0.96855,-2.28772 1.87068,0.84505 0,0 z m 1.79917,-1.45992 c -2.71475,-3.75918 0.60292,-7.88476 2.68577,-11.05327 1.78158,-2.63283 1.21733,-5.45136 3.7506,-8.15446 2.7155,-2.84474 5.92109,-5.23646 8.84048,-7.89319 4.06753,-2.82773 2.32242,4.84679 -0.0139,5.99879 -3.56446,2.46453 -5.08139,6.80331 -7.10559,10.51111 -2.12061,3.51832 -2.86507,8.24443 -5.63083,11.10362 -0.82722,0.35049 -2.0456,0.42766 -2.52656,-0.5126 z m -9.65729,0.18992 c 0.0902,-1.05223 0.6984,1.22651 0,0 z m -4.0533,-0.48375 c 1.28438,-1.73575 0.33671,2.10042 0,0 z m 5.25941,-1.57128 c -1.87893,-4.62734 2.42925,-8.34021 4.6475,-11.89959 0.73126,-3.02803 9.32535,-4.88768 5.55523,-0.22296 -2.59448,3.71833 -3.13904,8.44784 -5.02294,12.33548 -1.38095,1.39801 -4.01021,1.52115 -5.17979,-0.21293 z m -8.746741,-0.19393 c 0.47734,-1.7898 0.71383,1.6488 0,0 z m 31.121151,-3.59913 c 1.84639,-5.94377 3.68613,-11.89638 5.92447,-17.70721 3.76039,4.20754 -0.72205,9.28556 -2.56834,13.2643 -0.58418,0.65943 -2.73484,6.54347 -3.35613,4.44291 z m -26.75552,0.69166 c -4.267921,-1.61377 -1.71908,-6.85129 1.15332,-8.54344 2.74465,-3.45935 8.47088,-0.8371 5.0405,3.18452 -2.28589,1.51298 -2.16601,7.30617 -6.19382,5.35892 z m -3.836471,0.26164 c -0.22499,-1.87604 0.81332,1.44968 0,0 z m -3.43958,-1.60312 c 1.14539,-1.15581 -0.0252,1.56459 0,0 z m -2.58443,-3.02709 c 0.49409,-1.77098 0.77114,1.8967 0,0 z m 4.50412,-1.38906 c -3.5255,-3.36885 1.31836,-6.95298 4.437591,-8.05181 6.41238,-1.99534 -7.494891,3.42787 -4.116401,-2.60164 2.31258,-4.05387 7.564951,-3.60152 11.481941,-4.75438 5.93853,-1.08882 11.60738,-3.31213 17.37931,-4.9395 3.27569,-1.11517 7.26787,2.58983 2.73125,4.29692 -5.66,4.05458 -10.66909,9.75601 -17.87685,10.93441 -2.45836,-0.0717 -3.7182,-2.34265 -5.61928,0.56029 -2.28427,1.71676 -5.467321,5.43385 -8.417561,4.55571 z m 10.515731,-9.98803 c -0.7332,-0.87528 -1.03546,1.42544 0,0 z m -13.758341,9.12813 c 0.62512,-1.33515 0.28165,1.13482 0,0 z m -1.5875,-2.8948 c 0.57525,-2.77581 1.29376,1.13375 0,0 z m -0.79375,-3.19062 c 1.06065,-2.83678 0.91602,2.21621 0,0 z m 36.644801,-0.39687 c 0.83622,-1.52885 0.43319,1.01294 0,0 z m -35.321881,-3.88177 c -0.0608,-2.8893 2.50211,0.2339 0,0 z m 42.177661,-3.72366 c 1.39369,0.5442 -1.14078,0.92873 0,0 z m -34.18328,-0.37029 c 0.35747,-4.85677 6.267,-5.75746 10.15427,-5.26028 2.29966,-1.0168 9.3496,1.17549 4.51687,3.03568 -4.54063,1.59969 -9.45278,1.8729 -14.06778,3.06204 -0.35673,-0.0783 -0.74463,-0.42726 -0.60336,-0.83744 z m 32.75146,-0.10969 c 0.88857,-1.07999 -0.18508,1.11485 0,0 z m -38.360541,-0.0505 c -0.0676,-2.06901 1.54341,0.29586 0,0 z m 3.17095,-1.93562 c -0.12402,-2.88963 2.644591,0.0705 0,0 z m 19.352811,-2.85343 c -2.98196,1.03532 -3.80559,-5.09698 -0.3662,-2.54993 3.25332,0.86085 10.82012,-2.42632 11.03258,1.74036 -3.21444,1.41375 -7.01449,1.39863 -10.40215,0.93229 l -0.20247,-0.094 z m 12.39719,-2.02397 c 0.8032,-1.59342 0.59314,1.40617 0,0 z m -1.5875,-3.30729 c 1.424,-1.19547 2.01235,1.31287 0,0 z m -1.25126,-0.15985 c 0.66615,-0.67888 0.47531,0.80923 0,0 z m -2.32061,-0.10473 c 0.84991,-1.26613 1.07203,1.33237 0,0 z m -2.38125,-1.06659 c -9.79602,-0.28536 -19.37364,-2.97403 -29.180981,-3.02388 -5.34581,-1.34432 -2.04303,-8.883416 2.70405,-6.72896 5.573521,0.13892 11.152761,0.82981 16.717451,0.21093 7.02359,0.29773 11.99143,6.60944 18.20145,8.52823 -8.10355,-6.1764 -18.1801,-10.356797 -23.91625,-19.175456 -1.71526,-4.69131 6.27791,-2.33853 8.53569,-1.27711 4.83423,3.47002 8.68039,8.13887 12.5977,12.574276 2.12752,2.43941 7.74943,9.59778 1.07169,9.42555 -2.24928,-0.0345 -4.48149,-0.90238 -6.7308,-0.53358 z m 11.90625,-2.10841 c 0.30531,-0.96757 0.54845,0.89232 0,0 z M 87.221779,106.4738 c 1.20194,-1.49788 0.80613,1.6737 0,0 z m -1.52123,-4.82865 c 1.18479,-2.778217 0.90961,2.25268 0,0 z m 2.06822,-0.3142 c 0.77688,0.13312 -0.97944,0.98428 0,0 z m 7.24358,-2.020387 c -4.9301,1.616977 -8.01372,-7.962879 -1.9079,-7.420419 5.48474,0.52487 11.102251,0.98109 16.308961,2.84071 2.94126,0.7693 5.11266,6.059196 0.38585,5.062289 -4.92603,-0.25167 -9.867581,-0.0803 -14.786911,-0.48258 z m -8.07261,-1.702599 c 1.15105,-2.38504 0.89246,2.506906 0,0 z m -2.26922,0.44364 c -1.21647,-2.79705 1.8363,0.299289 0.13751,0.0739 z m -1.05833,-3.96875 c -1.19429,-2.70545 2.26406,1.14583 0,0 z m 2.27357,-0.42815 c -1.16941,-5.00334 4.64797,1.15458 0,0 z m 15.929871,-1.41733 c -3.876981,-0.86446 -11.668771,-0.91392 -11.544251,-5.97075 3.33081,-3.55582 8.94998,-1.06913 12.560751,0.84863 3.08271,0.53755 5.37482,7.06675 0.61468,5.6297 l -0.80131,-0.31838 z m -14.176021,-2.6718 c -0.16023,-2.5214 2.69864,1.63969 0,0 z m -3.87569,-0.15743 c 1.12961,-2.59317 1.59104,1.90505 0,0 z m -2.20973,-3.01757 c -2.51372,-3.82973 3.01107,1.01942 0,0 z m 3.07372,-0.73745 c -1.26401,-5.14592 5.27777,2.465 0,0 z m 17.115031,-0.56772 c -4.618421,-1.00595 2.53285,-4.12716 2.18133,0.0538 -0.39625,0.92439 -1.70013,0.61412 -2.18133,-0.0538 z m 3.19716,-1.16987 c -3.70998,-3.52612 6.23293,-3.83396 2.97094,0.006 -0.85304,0.60592 -2.14636,0.72896 -2.97094,-0.006 z m -17.916641,-1.92037 c -4.05284,0.26746 -2.15649,-5.515487 1.22578,-3.906337 4.15934,-0.0451 3.7603,7.070477 -0.51652,4.201367 -0.23662,-0.0978 -0.47282,-0.19672 -0.70926,-0.29503 z m -6.95854,0.28246 c -0.42962,-2.75054 2.27337,1.32163 0,0 z m 3.61442,-0.46745 c -0.0317,-1.98927 1.62586,1.96374 0,0 z m 11.43262,-2.1586 c -3.33764,-2.441567 2.9285,-8.507997 3.25512,-2.529677 0.26921,1.819697 -1.46983,3.528417 -3.25512,2.529677 z m -14.54296,-0.59479 c -0.61588,-4.795087 2.85861,1.82399 0,0 z m 8.04196,-1.390797 c -2.40352,0.944147 -8.23668,-3.20031 -2.81704,-3.15106 2.58151,-1.59126 9.82706,3.60888 4.59122,3.44819 -0.59055,-0.10375 -1.17886,-0.22269 -1.77418,-0.29713 z m 3.83646,-1.00837 c 0.40435,-1.29563 0.85275,0.73416 0,0 z m -1.98437,-2.59427 c -1.76896,-1.31067 -7.80319,-0.0717 -6.35995,-3.45059 3.65131,-0.43382 7.80238,1.02406 9.66543,4.3517 -1.16271,-0.07 -2.15563,-0.77192 -3.30548,-0.90111 z m -11.90625,0.32969 c 2.36472,-4.12689 1.72413,3.14204 0,0 z m -0.53633,-3.71575 c 1.30262,-3.21216 3.19165,2.00946 0,0 z m 3.18363,-2.1027 c 0.34207,-3.7279 4.58885,1.85642 0,0 z m 4.4218,-0.70367 c -0.44843,-1.46976 2.87379,1.26068 0.1065,0.0268 z m -7.0691,-0.0484 c 0.80943,-0.96014 0.17937,1.26239 0,0 z m 59.115781,39.709613 c -0.78031,-2.04786 0.073,2.038 0,0 z" />
        <path
           id="path211-1"
           style="opacity:1;fill:#000000;stroke-width:0.264583"
           d="m 120.57317,156.29641 c 6.63937,-3.16321 8.578,-10.86987 11.97077,-16.76718 2.24072,-3.68496 5.979,-7.22441 5.13267,-11.94987 -0.0706,-6.14784 0.27819,-12.31015 -0.26575,-18.44517 -5.08886,-2.14302 -4.63201,-9.134357 -9.10311,-12.123756 -10.97892,-14.19263 -25.39119,-26.754507 -43.111651,-31.327317 -3.34794,-1.06634 -8.48856,-2.04758 -10.31368,1.88956 -1.90993,5.73299 2.35446,10.893767 3.57961,16.276757 2.56856,7.52209 4.09298,15.376629 6.3174,22.971726 3.03851,5.07608 9.60615,5.68146 14.93819,6.00449 3.785911,0.50699 1.434541,3.05699 -0.90242,3.39718 -6.31811,3.52737 -11.42716,10.718 -9.74632,18.22024 0.91019,6.23755 4.92773,11.71754 10.21629,15.01039 5.707741,5.06836 13.648931,8.05804 21.288001,6.84295 z m -3.4483,-1.91754 c 2.18754,-3.29715 3.38794,1.83247 0,0 z m 3.69779,-0.4124 c 1.13479,-1.84321 1.50373,1.34411 0,0 z m -6.9071,-0.0217 c -0.12496,-3.33171 2.13796,2.11047 0,0 z m -2.41813,-1.36737 c -0.73473,-4.14283 2.50492,1.92988 0,0 z m -3.66948,-0.48736 c 0.40275,-2.02199 1.2265,1.64325 0,0 z m 14.10494,-0.5512 c 0.9107,-3.151 4.23675,1.84448 0,0 z m -3.62244,-0.0659 c 0.60997,-3.01037 3.40302,2.38503 0.11935,0.038 l -2.9e-4,-1e-4 z m -3.10606,-0.21508 c -0.15989,-2.86554 2.51902,1.80434 0,0 z m -11.31381,-0.59854 c 1.06084,-2.01966 1.23069,1.85173 0,0 z m 16.9281,-1.73304 c -1.62547,-5.21907 3.57706,-8.94427 4.67662,-13.64155 2.15131,-4.25585 4.45652,-8.4423 7.09963,-12.41502 0.80869,6.85841 -3.46566,12.8683 -4.76554,19.38914 -0.52088,2.74517 -3.5267,9.76083 -7.01071,6.66743 z m -11.85308,0.57884 c 0.43559,-2.26422 1.61514,1.51742 0,0 z m 3.90766,-0.28792 c -0.96855,-2.28772 1.87068,0.84505 0,0 z m 1.79917,-1.45992 c -2.71475,-3.75918 0.60292,-7.88476 2.68577,-11.05327 1.78158,-2.63283 1.21733,-5.45136 3.7506,-8.15446 2.7155,-2.84474 5.92109,-5.23646 8.84048,-7.89319 4.06753,-2.82773 2.32242,4.84679 -0.0139,5.99879 -3.56446,2.46453 -5.08139,6.80331 -7.10559,10.51111 -2.12061,3.51832 -2.86507,8.24443 -5.63083,11.10362 -0.82722,0.35049 -2.0456,0.42766 -2.52656,-0.5126 z m -9.65729,0.18992 c 0.0902,-1.05223 0.6984,1.22651 0,0 z m -4.0533,-0.48375 c 1.28438,-1.73575 0.33671,2.10042 0,0 z m 5.25941,-1.57128 c -1.87893,-4.62734 2.42925,-8.34021 4.6475,-11.89959 0.73126,-3.02803 9.32535,-4.88768 5.55523,-0.22296 -2.59448,3.71833 -3.13904,8.44784 -5.02294,12.33548 -1.38095,1.39801 -4.01021,1.52115 -5.17979,-0.21293 z m -8.746741,-0.19393 c 0.47734,-1.7898 0.71383,1.6488 0,0 z m 31.121151,-3.59913 c 1.84639,-5.94377 3.68613,-11.89638 5.92447,-17.70721 3.76039,4.20754 -0.72205,9.28556 -2.56834,13.2643 -0.58418,0.65943 -2.73484,6.54347 -3.35613,4.44291 z m -26.75552,0.69166 c -4.267921,-1.61377 -1.71908,-6.85129 1.15332,-8.54344 2.74465,-3.45935 8.47088,-0.8371 5.0405,3.18452 -2.28589,1.51298 -2.16601,7.30617 -6.19382,5.35892 z m -3.836471,0.26164 c -0.22499,-1.87604 0.81332,1.44968 0,0 z m -3.43958,-1.60312 c 1.14539,-1.15581 -0.0252,1.56459 0,0 z m -2.58443,-3.02709 c 0.49409,-1.77098 0.77114,1.8967 0,0 z m 4.50412,-1.38906 c -3.5255,-3.36885 1.31836,-6.95298 4.437591,-8.05181 6.41238,-1.99534 -7.494891,3.42787 -4.116401,-2.60164 2.31258,-4.05387 7.564951,-3.60152 11.481941,-4.75438 5.93853,-1.08882 11.60738,-3.31213 17.37931,-4.9395 3.27569,-1.11517 7.26787,2.58983 2.73125,4.29692 -5.66,4.05458 -10.66909,9.75601 -17.87685,10.93441 -2.45836,-0.0717 -3.7182,-2.34265 -5.61928,0.56029 -2.28427,1.71676 -5.467321,5.43385 -8.417561,4.55571 z m 10.515731,-9.98803 c -0.7332,-0.87528 -1.03546,1.42544 0,0 z m -13.758341,9.12813 c 0.62512,-1.33515 0.28165,1.13482 0,0 z m -1.5875,-2.8948 c 0.57525,-2.77581 1.29376,1.13375 0,0 z m -0.79375,-3.19062 c 1.06065,-2.83678 0.91602,2.21621 0,0 z m 36.644801,-0.39687 c 0.83622,-1.52885 0.43319,1.01294 0,0 z m -35.321881,-3.88177 c -0.0608,-2.8893 2.50211,0.2339 0,0 z m 42.177661,-3.72366 c 1.39369,0.5442 -1.14078,0.92873 0,0 z m -34.18328,-0.37029 c 0.35747,-4.85677 6.267,-5.75746 10.15427,-5.26028 2.29966,-1.0168 9.3496,1.17549 4.51687,3.03568 -4.54063,1.59969 -9.45278,1.8729 -14.06778,3.06204 -0.35673,-0.0783 -0.74463,-0.42726 -0.60336,-0.83744 z m 32.75146,-0.10969 c 0.88857,-1.07999 -0.18508,1.11485 0,0 z m -38.360541,-0.0505 c -0.0676,-2.06901 1.54341,0.29586 0,0 z m 3.17095,-1.93562 c -0.12402,-2.88963 2.644591,0.0705 0,0 z m 19.352811,-2.85343 c -2.98196,1.03532 -3.80559,-5.09698 -0.3662,-2.54993 3.25332,0.86085 10.82012,-2.42632 11.03258,1.74036 -3.21444,1.41375 -7.01449,1.39863 -10.40215,0.93229 l -0.20247,-0.094 z m 12.39719,-2.02397 c 0.8032,-1.59342 0.59314,1.40617 0,0 z m -1.5875,-3.30729 c 1.424,-1.19547 2.01235,1.31287 0,0 z m -1.25126,-0.15985 c 0.66615,-0.67888 0.47531,0.80923 0,0 z m -2.32061,-0.10473 c 0.84991,-1.26613 1.07203,1.33237 0,0 z m -2.38125,-1.06659 c -9.79602,-0.28536 -19.37364,-2.97403 -29.180981,-3.02388 -5.34581,-1.34432 -2.04303,-8.883416 2.70405,-6.72896 5.573521,0.13892 11.152761,0.82981 16.717451,0.21093 7.02359,0.29773 11.99143,6.60944 18.20145,8.52823 -8.10355,-6.1764 -18.1801,-10.356797 -23.91625,-19.175456 -1.71526,-4.69131 6.27791,-2.33853 8.53569,-1.27711 4.83423,3.47002 8.68039,8.13887 12.5977,12.574276 2.12752,2.43941 7.74943,9.59778 1.07169,9.42555 -2.24928,-0.0345 -4.48149,-0.90238 -6.7308,-0.53358 z m 11.90625,-2.10841 c 0.30531,-0.96757 0.54845,0.89232 0,0 z M 87.221779,106.4738 c 1.20194,-1.49788 0.80613,1.6737 0,0 z m -1.52123,-4.82865 c 1.18479,-2.778217 0.90961,2.25268 0,0 z m 2.06822,-0.3142 c 0.77688,0.13312 -0.97944,0.98428 0,0 z m 7.24358,-2.020387 c -4.9301,1.616977 -8.01372,-7.962879 -1.9079,-7.420419 5.48474,0.52487 11.102251,0.98109 16.308961,2.84071 2.94126,0.7693 5.11266,6.059196 0.38585,5.062289 -4.92603,-0.25167 -9.867581,-0.0803 -14.786911,-0.48258 z m -8.07261,-1.702599 c 1.15105,-2.38504 0.89246,2.506906 0,0 z m -2.26922,0.44364 c -1.21647,-2.79705 1.8363,0.299289 0.13751,0.0739 z m -1.05833,-3.96875 c -1.19429,-2.70545 2.26406,1.14583 0,0 z m 2.27357,-0.42815 c -1.16941,-5.00334 4.64797,1.15458 0,0 z m 15.929871,-1.41733 c -3.876981,-0.86446 -11.668771,-0.91392 -11.544251,-5.97075 3.33081,-3.55582 8.94998,-1.06913 12.560751,0.84863 3.08271,0.53755 5.37482,7.06675 0.61468,5.6297 l -0.80131,-0.31838 z m -14.176021,-2.6718 c -0.16023,-2.5214 2.69864,1.63969 0,0 z m -3.87569,-0.15743 c 1.12961,-2.59317 1.59104,1.90505 0,0 z m -2.20973,-3.01757 c -2.51372,-3.82973 3.01107,1.01942 0,0 z m 3.07372,-0.73745 c -1.26401,-5.14592 5.27777,2.465 0,0 z m 17.115031,-0.56772 c -4.618421,-1.00595 2.53285,-4.12716 2.18133,0.0538 -0.39625,0.92439 -1.70013,0.61412 -2.18133,-0.0538 z m 3.19716,-1.16987 c -3.70998,-3.52612 6.23293,-3.83396 2.97094,0.006 -0.85304,0.60592 -2.14636,0.72896 -2.97094,-0.006 z m -17.916641,-1.92037 c -4.05284,0.26746 -2.15649,-5.515487 1.22578,-3.906337 4.15934,-0.0451 3.7603,7.070477 -0.51652,4.201367 -0.23662,-0.0978 -0.47282,-0.19672 -0.70926,-0.29503 z m -6.95854,0.28246 c -0.42962,-2.75054 2.27337,1.32163 0,0 z m 3.61442,-0.46745 c -0.0317,-1.98927 1.62586,1.96374 0,0 z m 11.43262,-2.1586 c -3.33764,-2.441567 2.9285,-8.507997 3.25512,-2.529677 0.26921,1.819697 -1.46983,3.528417 -3.25512,2.529677 z m -14.54296,-0.59479 c -0.61588,-4.795087 2.85861,1.82399 0,0 z m 8.04196,-1.390797 c -2.40352,0.944147 -8.23668,-3.20031 -2.81704,-3.15106 2.58151,-1.59126 9.82706,3.60888 4.59122,3.44819 -0.59055,-0.10375 -1.17886,-0.22269 -1.77418,-0.29713 z m 3.83646,-1.00837 c 0.40435,-1.29563 0.85275,0.73416 0,0 z m -1.98437,-2.59427 c -1.76896,-1.31067 -7.80319,-0.0717 -6.35995,-3.45059 3.65131,-0.43382 7.80238,1.02406 9.66543,4.3517 -1.16271,-0.07 -2.15563,-0.77192 -3.30548,-0.90111 z m -11.90625,0.32969 c 2.36472,-4.12689 1.72413,3.14204 0,0 z m -0.53633,-3.71575 c 1.30262,-3.21216 3.19165,2.00946 0,0 z m 3.18363,-2.1027 c 0.34207,-3.7279 4.58885,1.85642 0,0 z m 4.4218,-0.70367 c -0.44843,-1.46976 2.87379,1.26068 0.1065,0.0268 z m -7.0691,-0.0484 c 0.80943,-0.96014 0.17937,1.26239 0,0 z m 59.115781,39.709613 c -0.78031,-2.04786 0.073,2.038 0,0 z" />
      </g>
      <path
         style="display:inline;opacity:1;fill:#000000;stroke-width:0.171023;stroke-opacity:0.991903"
         id="path2345"
         d="m -170.84029,67.508772 c -0.54465,-0.0013 -1.08926,-0.01338 -1.63385,-0.02185 -0.60612,-0.0058 -1.21248,-0.01803 -1.81853,-0.0045 -0.65568,0.0126 -1.31076,0.04092 -1.96571,0.0734 -0.7113,0.04551 -1.42133,0.106112 -2.13326,0.141359 -0.57421,0.02191 -1.1496,0.04396 -1.72408,0.01571 -0.34811,-0.01713 -0.72155,-0.0552 -1.06855,-0.08716 -0.72407,-0.07283 -1.4515,-0.101696 -2.17883,-0.112549 -0.34632,0.0039 -0.69177,-0.0077 -1.03767,-0.02211 -0.25128,0.0032 -0.49383,-0.05106 -0.72984,-0.132393 -0.0337,-0.02314 -0.11613,-0.01719 -0.1222,-0.06457 0,0 0.29246,0.692741 0.29246,0.692741 v 0 c 0.0495,0.01215 0.0978,0.02818 0.14655,0.04292 0.24171,0.06728 0.48761,0.11421 0.73986,0.109938 0.34496,0.01661 0.68953,0.02411 1.03487,0.0099 0.71751,-0.0067 1.43586,0.0026 2.1508,0.07026 0.23656,0.02101 0.8399,0.07625 1.07446,0.09038 0.5795,0.03491 1.16014,0.02463 1.73987,0.0032 0.7118,-0.03355 1.42145,-0.09519 2.13235,-0.143129 0.65614,-0.03083 1.31291,-0.04143 1.96942,-0.06167 0.60492,-0.0092 1.20989,-0.0026 1.81483,0.0026 0.55188,0.0076 1.10438,0.01597 1.65476,0.06063 0,0 -0.33771,-0.662794 -0.33771,-0.662794 z"
         transform="translate(280.90135,88.664986)" />
      <path
         style="display:inline;opacity:1;fill:#000000;stroke-width:0.171023;stroke-opacity:0.991903"
         id="path2347"
         d="m -181.41787,68.080321 c 0.49485,0.02586 0.99048,0.04893 1.48572,0.07154 0.45985,0.02146 0.92098,0.04337 1.38128,0.0201 0.31255,-0.01584 0.36457,-0.02838 0.67214,-0.06783 0.474,-0.06322 0.93919,-0.172172 1.40682,-0.268852 0.0427,-0.0081 0.0855,-0.01616 0.12822,-0.02424 0,0 -0.34626,-0.645988 -0.34626,-0.645988 v 0 c -0.0421,0.0098 -0.0841,0.01965 -0.12622,0.02948 -0.46006,0.108813 -0.91814,0.227865 -1.38762,0.291288 -0.10864,0.01403 -0.21692,0.03122 -0.32592,0.04215 -0.56992,0.05701 -1.14347,0.02754 -1.71426,0.0045 -0.50203,-0.0276 -1.00632,-0.05514 -1.50468,-0.121521 0,0 0.33078,0.669658 0.33078,0.669658 z"
         transform="translate(280.90135,88.664986)" />
      <path
         id="path2349"
         style="display:inline;opacity:1;fill:#000000;stroke-width:0.171024;stroke-opacity:0.991903"
         d="m -157.83672,60.545231 c -0.29284,-0.627862 -0.9432,0.0811 -1.16009,0.428228 -0.53061,0.707518 -1.07121,1.426286 -1.79408,1.950405 -1.11314,0.995529 -2.29632,1.929019 -3.63024,2.612453 -0.98261,0.570626 -2.01724,1.089888 -3.13889,1.317416 -0.24776,0.122261 -0.58097,0.190139 -0.87749,0.282591 a 1.1831827,1.1328343 0 0 0 -0.98439,-0.504387 1.1831827,1.1328343 0 0 0 -1.18013,1.052196 c -0.0158,-0.215178 -0.007,-0.43152 0.0421,-0.643343 0.0146,-0.06289 0.0363,-0.124098 0.0544,-0.186055 0.0881,-0.206482 0.042,-0.108203 0.13729,-0.294614 l -0.4005,-0.608938 c -0.0974,0.195131 -0.0491,0.09255 -0.14364,0.307976 -0.0198,0.06399 -0.0431,0.126811 -0.0595,0.191733 -0.0916,0.363387 -0.0786,0.744028 -3.4e-4,1.108314 0.0346,0.127992 0.0826,0.31477 0.12693,0.439919 0.15949,0.449718 0.44123,0.84504 0.69412,1.246601 l -0.2542,-0.639 c 0.0302,0.0517 0.0597,0.103823 0.0939,0.152985 0.0411,0.05915 -0.0622,-0.13002 -0.0885,-0.197077 -0.0501,-0.127719 -0.0815,-0.242344 -0.11658,-0.368101 a 1.1831827,1.1328343 0 0 0 1.09462,0.702799 1.1831827,1.1328343 0 0 0 0.75491,-0.260877 c 0.33911,0.142847 0.79194,0.210306 1.10698,0.365763 1.12164,0.22753 2.15627,0.747125 3.13888,1.317751 1.33392,0.683433 2.5171,1.616924 3.63025,2.612453 0.72286,0.524118 1.26346,1.242887 1.79407,1.950405 0.21689,0.347131 0.86725,1.05609 1.16009,0.428227 -0.2545,-0.283713 -0.51746,-0.559715 -0.78196,-0.834074 -0.84408,-0.930903 -1.80308,-1.745112 -2.77279,-2.540971 -1.05353,-0.906179 -2.23638,-1.645562 -3.46557,-2.288777 -0.80333,-0.467223 -1.67755,-0.791166 -2.57705,-1.017124 -0.30704,-0.0032 -0.63078,-0.232934 -0.93962,-0.340377 a 1.1831827,1.1328343 0 0 0 0.13494,-0.525097 1.1831827,1.1328343 0 0 0 -0.0264,-0.237162 c 0.27551,-0.116664 0.55994,-0.298464 0.83106,-0.301294 0.8995,-0.225958 1.77372,-0.549901 2.57705,-1.017124 1.22919,-0.643215 2.41204,-1.382598 3.46557,-2.288777 0.96971,-0.795861 1.92871,-1.610068 2.77279,-2.540971 0.2645,-0.274359 0.52746,-0.550362 0.78196,-0.834075 z m -12.76999,8.066506 -0.31866,-0.673073 c -0.45726,-0.03904 -0.91752,-0.03917 -1.37621,-0.05177 l 0.31733,0.626308 c 0.45905,0.0072 0.92703,0.0012 1.37754,0.09854 z"
         transform="translate(280.90135,88.664986)" />
    </g>
  </g>
</svg>
